<svg xmlns="http://www.w3.org/2000/svg" width="36.385" height="31.268" viewBox="0 0 36.385 31.268">
  <g id="car" transform="translate(0 -35.446)">
    <path id="Path_3136" data-name="Path 3136" d="M96.719,378.091v1.99a1.4,1.4,0,0,0,1.393,1.421h2.3v-3.411h-3.7ZM74.831,381.5h2.3a1.4,1.4,0,0,0,1.393-1.421v-1.99h-3.7Z" transform="translate(-69.43 -317.915)" fill="#1e2e37"/>
    <path id="Path_3137" data-name="Path 3137" d="M51.772,370.784v4.633a1.9,1.9,0,0,0,1.876,1.9H54.7a1.881,1.881,0,0,0,1.876-1.9v-5.2Zm-28.141,4.633a1.9,1.9,0,0,0,1.876,1.9h1.052a1.881,1.881,0,0,0,1.876-1.9v-4.633l-4.8-.569Z" transform="translate(-21.925 -310.607)" fill="#324d5b"/>
    <path id="Path_3138" data-name="Path 3138" d="M98.471,35.446h.085c9.636,0,11.967,4.122,11.967,11.939H86.646C86.646,39.568,89.005,35.446,98.471,35.446Z" transform="translate(-80.392)" fill="#4a5dbe"/>
    <path id="Path_3139" data-name="Path 3139" d="M116.77,55.138h.085c8.471,0,10.517,3.638,10.517,10.517H106.338C106.338,58.777,108.413,55.138,116.77,55.138Z" transform="translate(-98.663 -18.271)" fill="#85c6dc"/>
    <path id="Path_3140" data-name="Path 3140" d="M116.856,334.77c5.8,0,10.517,1.08,10.517,2.416s-4.719,2.416-10.517,2.416-10.517-1.08-10.517-2.416S111.058,334.77,116.856,334.77Z" transform="translate(-98.664 -277.72)" fill="#4a5dbe"/>
    <path id="Path_3141" data-name="Path 3141" d="M6.367,190.752l11.853-1.706,11.8,1.706a6.394,6.394,0,0,1,6.367,6.453V198.6a1.639,1.639,0,0,1-1.819,1.848H1.819A1.685,1.685,0,0,1,0,198.569v-1.393A6.387,6.387,0,0,1,6.367,190.752Z" transform="translate(0 -142.514)" fill="#4a5dbe"/>
    <path id="Path_3142" data-name="Path 3142" d="M8.758,342.646H42.215a.862.862,0,0,1,.881.853,1.749,1.749,0,0,1-1.791,1.706H9.668A1.749,1.749,0,0,1,7.877,343.5a.862.862,0,0,1,.881-.853Z" transform="translate(-7.308 -285.028)" fill="#e4e7e7"/>
    <path id="Path_3143" data-name="Path 3143" d="M100.012,156.8s-3.3,1.308-5.031,7.078c0,0-.966,3.184-3.184,3.184H83.61c-2.217,0-3.184-3.184-3.184-3.184-1.734-5.77-5-7.021-5-7.021-1.137-.455,0-1.137,0-1.137,4.6-2.615,12.28-2.3,12.28-2.3s7.647-.341,12.308,2.3C100.012,155.718,101.063,156.315,100.012,156.8Z" transform="translate(-69.511 -109.442)" fill="#9ea8ee"/>
    <path id="Path_3144" data-name="Path 3144" d="M110.829,181.933c.142.455.881,2.16,1.819,2.16h2.5v-10.8a21.834,21.834,0,0,0-8.812,1.535A13.528,13.528,0,0,1,110.829,181.933Zm7.732-8.641v10.8h2.246c.966,0,1.677-1.706,1.819-2.16a13.743,13.743,0,0,1,4.434-7.106A20.963,20.963,0,0,0,118.561,173.292Z" transform="translate(-98.663 -127.897)" fill="#4a5dbe"/>
    <path id="Path_3145" data-name="Path 3145" d="M244.185,153.6h1.137v13.644h-1.137Z" transform="translate(-226.561 -109.626)" fill="#687ad5"/>
    <path id="Path_3146" data-name="Path 3146" d="M38,248.123a2.558,2.558,0,1,0,2.558,2.558A2.548,2.548,0,0,0,38,248.123Zm26.152,0a2.558,2.558,0,1,0,2.558,2.558A2.548,2.548,0,0,0,64.156,248.123Z" transform="translate(-32.888 -197.327)" fill="#ffe1b7"/>
    <path id="Path_3147" data-name="Path 3147" d="M59.93,271.754a.853.853,0,1,0,.853.853A.855.855,0,0,0,59.93,271.754Zm26.152,0a.853.853,0,1,0,.853.853A.838.838,0,0,0,86.081,271.754Z" transform="translate(-54.813 -219.253)" fill="#f4b459"/>
    <path id="Path_3148" data-name="Path 3148" d="M88.887,192.985h-.512a1,1,0,0,0-1.023.995v.483c0,.284.569.483,1.251.483.711,0,1.251-.227,1.251-.483v-.483A.932.932,0,0,0,88.887,192.985Zm-24.73,0h-.512a1,1,0,0,0-1.023.995v.483c0,.284.569.483,1.251.483s1.251-.227,1.251-.483v-.483A.932.932,0,0,0,64.157,192.985Z" transform="translate(-58.102 -146.169)" fill="#f4b459"/>
    <path id="Path_3149" data-name="Path 3149" d="M117.366,60a23.726,23.726,0,0,1,9.665-2.53,24.075,24.075,0,0,1,9.75,2.53c-1.194-3.212-3.98-4.861-9.693-4.861H127C121.374,55.138,118.588,56.787,117.366,60Z" transform="translate(-108.895 -18.271)" fill="#92d2e8"/>
    <path id="Path_3150" data-name="Path 3150" d="M64.156,248.692a1.99,1.99,0,1,1-1.99,1.99,1.978,1.978,0,0,1,1.99-1.99m-26.152,0a1.99,1.99,0,1,1-1.99,1.99,1.978,1.978,0,0,1,1.99-1.99m26.152-.569a2.558,2.558,0,1,0,2.558,2.558A2.548,2.548,0,0,0,64.156,248.123Zm-26.152,0a2.558,2.558,0,1,0,2.558,2.558A2.548,2.548,0,0,0,38,248.123Z" transform="translate(-32.888 -197.327)" fill="#ffdf70"/>
  </g>
</svg>
