<svg xmlns="http://www.w3.org/2000/svg" xmlns:xlink="http://www.w3.org/1999/xlink" width="152" height="92" viewBox="0 0 152 92">
  <defs>
    <clipPath id="clip-path">
      <path id="Rectangle_1495" data-name="Rectangle 1495" d="M0,0H152a0,0,0,0,1,0,0V76a16,16,0,0,1-16,16H0a0,0,0,0,1,0,0V0A0,0,0,0,1,0,0Z" transform="translate(48 632)" fill="#fff" stroke="#707070" stroke-width="1"/>
    </clipPath>
    <filter id="Rectangle_1494" x="15" y="65" width="9" height="30" filterUnits="userSpaceOnUse">
      <feOffset dx="3" input="SourceAlpha"/>
      <feGaussianBlur stdDeviation="1" result="blur"/>
      <feFlood flood-opacity="0.259"/>
      <feComposite operator="in" in2="blur"/>
      <feComposite in="SourceGraphic"/>
    </filter>
    <filter id="Rectangle_1494-2" x="31" y="39" width="9" height="56" filterUnits="userSpaceOnUse">
      <feOffset dx="3" input="SourceAlpha"/>
      <feGaussianBlur stdDeviation="1" result="blur-2"/>
      <feFlood flood-opacity="0.259"/>
      <feComposite operator="in" in2="blur-2"/>
      <feComposite in="SourceGraphic"/>
    </filter>
    <filter id="Rectangle_1494-3" x="47" y="61" width="9" height="34" filterUnits="userSpaceOnUse">
      <feOffset dx="3" input="SourceAlpha"/>
      <feGaussianBlur stdDeviation="1" result="blur-3"/>
      <feFlood flood-opacity="0.259"/>
      <feComposite operator="in" in2="blur-3"/>
      <feComposite in="SourceGraphic"/>
    </filter>
    <filter id="Rectangle_1494-4" x="63" y="6" width="9" height="89" filterUnits="userSpaceOnUse">
      <feOffset dx="3" input="SourceAlpha"/>
      <feGaussianBlur stdDeviation="1" result="blur-4"/>
      <feFlood flood-opacity="0.259"/>
      <feComposite operator="in" in2="blur-4"/>
      <feComposite in="SourceGraphic"/>
    </filter>
    <filter id="Rectangle_1494-5" x="79" y="-2" width="9" height="97" filterUnits="userSpaceOnUse">
      <feOffset dx="3" input="SourceAlpha"/>
      <feGaussianBlur stdDeviation="1" result="blur-5"/>
      <feFlood flood-opacity="0.259"/>
      <feComposite operator="in" in2="blur-5"/>
      <feComposite in="SourceGraphic"/>
    </filter>
    <filter id="Rectangle_1494-6" x="95" y="46" width="9" height="49" filterUnits="userSpaceOnUse">
      <feOffset dx="3" input="SourceAlpha"/>
      <feGaussianBlur stdDeviation="1" result="blur-6"/>
      <feFlood flood-opacity="0.259"/>
      <feComposite operator="in" in2="blur-6"/>
      <feComposite in="SourceGraphic"/>
    </filter>
    <filter id="Rectangle_1494-7" x="111" y="17" width="9" height="78" filterUnits="userSpaceOnUse">
      <feOffset dx="3" input="SourceAlpha"/>
      <feGaussianBlur stdDeviation="1" result="blur-7"/>
      <feFlood flood-opacity="0.259"/>
      <feComposite operator="in" in2="blur-7"/>
      <feComposite in="SourceGraphic"/>
    </filter>
    <filter id="Rectangle_1494-8" x="127" y="29" width="9" height="66" filterUnits="userSpaceOnUse">
      <feOffset dx="3" input="SourceAlpha"/>
      <feGaussianBlur stdDeviation="1" result="blur-8"/>
      <feFlood flood-opacity="0.259"/>
      <feComposite operator="in" in2="blur-8"/>
      <feComposite in="SourceGraphic"/>
    </filter>
    <filter id="Rectangle_1494-9" x="143" y="46" width="9" height="49" filterUnits="userSpaceOnUse">
      <feOffset dx="3" input="SourceAlpha"/>
      <feGaussianBlur stdDeviation="1" result="blur-9"/>
      <feFlood flood-opacity="0.259"/>
      <feComposite operator="in" in2="blur-9"/>
      <feComposite in="SourceGraphic"/>
    </filter>
  </defs>
  <g id="Mask_Group_14" data-name="Mask Group 14" transform="translate(-48 -632)" clip-path="url(#clip-path)">
    <g id="Group_4958" data-name="Group 4958" transform="translate(-9 4)">
      <g transform="matrix(1, 0, 0, 1, 57, 628)" filter="url(#Rectangle_1494)">
        <path id="Rectangle_1494-10" data-name="Rectangle 1494" d="M1.5,0h0A1.5,1.5,0,0,1,3,1.5V24a0,0,0,0,1,0,0H0a0,0,0,0,1,0,0V1.5A1.5,1.5,0,0,1,1.5,0Z" transform="translate(15 68)" fill="#fff"/>
      </g>
      <g transform="matrix(1, 0, 0, 1, 57, 628)" filter="url(#Rectangle_1494-2)">
        <path id="Rectangle_1494-11" data-name="Rectangle 1494" d="M1.5,0h0A1.5,1.5,0,0,1,3,1.5V50a0,0,0,0,1,0,0H0a0,0,0,0,1,0,0V1.5A1.5,1.5,0,0,1,1.5,0Z" transform="translate(31 42)" fill="#fff"/>
      </g>
      <g transform="matrix(1, 0, 0, 1, 57, 628)" filter="url(#Rectangle_1494-3)">
        <path id="Rectangle_1494-12" data-name="Rectangle 1494" d="M1.5,0h0A1.5,1.5,0,0,1,3,1.5V28a0,0,0,0,1,0,0H0a0,0,0,0,1,0,0V1.5A1.5,1.5,0,0,1,1.5,0Z" transform="translate(47 64)" fill="#fff"/>
      </g>
      <g transform="matrix(1, 0, 0, 1, 57, 628)" filter="url(#Rectangle_1494-4)">
        <path id="Rectangle_1494-13" data-name="Rectangle 1494" d="M1.5,0h0A1.5,1.5,0,0,1,3,1.5V83a0,0,0,0,1,0,0H0a0,0,0,0,1,0,0V1.5A1.5,1.5,0,0,1,1.5,0Z" transform="translate(63 9)" fill="#fff"/>
      </g>
      <g transform="matrix(1, 0, 0, 1, 57, 628)" filter="url(#Rectangle_1494-5)">
        <path id="Rectangle_1494-14" data-name="Rectangle 1494" d="M1.5,0h0A1.5,1.5,0,0,1,3,1.5V91a0,0,0,0,1,0,0H0a0,0,0,0,1,0,0V1.5A1.5,1.5,0,0,1,1.5,0Z" transform="translate(79 1)" fill="#fff"/>
      </g>
      <g transform="matrix(1, 0, 0, 1, 57, 628)" filter="url(#Rectangle_1494-6)">
        <path id="Rectangle_1494-15" data-name="Rectangle 1494" d="M1.5,0h0A1.5,1.5,0,0,1,3,1.5V43a0,0,0,0,1,0,0H0a0,0,0,0,1,0,0V1.5A1.5,1.5,0,0,1,1.5,0Z" transform="translate(95 49)" fill="#fff"/>
      </g>
      <g transform="matrix(1, 0, 0, 1, 57, 628)" filter="url(#Rectangle_1494-7)">
        <path id="Rectangle_1494-16" data-name="Rectangle 1494" d="M1.5,0h0A1.5,1.5,0,0,1,3,1.5V72a0,0,0,0,1,0,0H0a0,0,0,0,1,0,0V1.5A1.5,1.5,0,0,1,1.5,0Z" transform="translate(111 20)" fill="#fff"/>
      </g>
      <g transform="matrix(1, 0, 0, 1, 57, 628)" filter="url(#Rectangle_1494-8)">
        <path id="Rectangle_1494-17" data-name="Rectangle 1494" d="M1.5,0h0A1.5,1.5,0,0,1,3,1.5V60a0,0,0,0,1,0,0H0a0,0,0,0,1,0,0V1.5A1.5,1.5,0,0,1,1.5,0Z" transform="translate(127 32)" fill="#fff"/>
      </g>
      <g transform="matrix(1, 0, 0, 1, 57, 628)" filter="url(#Rectangle_1494-9)">
        <path id="Rectangle_1494-18" data-name="Rectangle 1494" d="M1.5,0h0A1.5,1.5,0,0,1,3,1.5V43a0,0,0,0,1,0,0H0a0,0,0,0,1,0,0V1.5A1.5,1.5,0,0,1,1.5,0Z" transform="translate(143 49)" fill="#fff"/>
      </g>
    </g>
  </g>
</svg>
