<svg xmlns="http://www.w3.org/2000/svg" width="45.054" height="45.506" viewBox="0 0 45.054 45.506">
  <path id="Path_22" data-name="Path 22" d="M41.21,40.1h-.827v-.835a1.518,1.518,0,0,0-1.508-1.523h-.049V26.684A26.583,26.583,0,0,0,12.407,0H11.091A11.229,11.229,0,0,0,3.249,19.128l1.477,1.492a13.335,13.335,0,0,0-2.39,7.637V41.624a2.3,2.3,0,0,0,2.287,2.31h6.25a7.646,7.646,0,0,0,4.649,1.573A7.825,7.825,0,0,0,21.7,33V17.249a2.3,2.3,0,0,0-2.287-2.31H15.521a13.023,13.023,0,0,0-7.562,2.414L6.482,15.862A6.6,6.6,0,0,1,11.091,4.619h1.316A21.981,21.981,0,0,1,34.253,26.684V37.741H34.2A1.518,1.518,0,0,0,32.7,39.265v.957a2.311,2.311,0,0,0-1.557,2.188v2.359a.734.734,0,0,0,.73.737H44.324a.734.734,0,0,0,.73-.737v-.786A3.868,3.868,0,0,0,41.21,40.1ZM14.791,16.437v.929a.858.858,0,0,1-.755.831,10.015,10.015,0,0,0-2.884.907,10.225,10.225,0,0,0-5.7,9.152v7.076a.832.832,0,0,1-.827.835H3.8V28.257A11.809,11.809,0,0,1,14.791,16.437ZM3.8,41.624v-.835H8.419A7.84,7.84,0,0,0,9.4,42.459H4.622A.832.832,0,0,1,3.8,41.624Zm11.726,2.408A6.34,6.34,0,1,1,21.8,37.692,6.315,6.315,0,0,1,15.521,44.031Zm4.72-26.783V31.507a7.646,7.646,0,0,0-4.72-1.629,7.784,7.784,0,0,0-7.736,7.814,7.887,7.887,0,0,0,.169,1.622H3.8V37.643h.827a2.3,2.3,0,0,0,2.287-2.31V28.257a8.749,8.749,0,0,1,4.879-7.825,8.569,8.569,0,0,1,2.467-.777,2.318,2.318,0,0,0,2-2.289v-.952h3.163A.832.832,0,0,1,20.24,17.249Zm-9.149-14.1A8.077,8.077,0,0,0,5.45,16.9l1.355,1.369a13.374,13.374,0,0,0-1.17,1.181L4.281,18.085A9.752,9.752,0,0,1,11.091,1.474h1.316a24.71,24.71,0,0,1,16.3,6.133L27.533,8.792A23.068,23.068,0,0,0,12.407,3.145Zm17.522,6.64L29.782,8.6q.662.649,1.275,1.345l-1.171,1.183Q29.276,10.434,28.613,9.786Zm2.208,2.487.007-.006L32,11.083a25.246,25.246,0,0,1,5.367,15.6V37.741H35.713V26.684A23.571,23.571,0,0,0,30.821,12.273ZM34.2,39.216h4.671a.049.049,0,0,1,.049.049V40.1H34.156v-.835A.049.049,0,0,1,34.2,39.216Zm9.39,4.816h-11V42.41a.832.832,0,0,1,.827-.835H41.21a2.4,2.4,0,0,1,2.384,2.408Z" transform="translate(0)" fill="#fff"/>
</svg>
