<svg xmlns="http://www.w3.org/2000/svg" width="60" height="54.122" viewBox="0 0 60 54.122">
  <g id="Research" transform="translate(-806 -11353.213)">
    <g id="Group_4918" data-name="Group 4918" transform="translate(810.811 11365.587)">
      <path id="Path_3777" data-name="Path 3777" d="M-11268.152,11379.47l14.233-7.8,1.352,7.8,20.682-14.492" transform="translate(11268.152 -11363.695)" fill="none" stroke="#e34713" stroke-width="1.5"/>
      <path id="Path_3778" data-name="Path 3778" d="M-11232.322,11362.255l7.021,1.353-1.034,6.314" transform="translate(11261.798 -11362.255)" fill="none" stroke="#e34713" stroke-width="1.5"/>
    </g>
    <g id="Marketing_Manager" transform="translate(836.616 11353.213)">
      <g id="search_1_" data-name="search (1)" transform="translate(0 0)">
        <circle id="Ellipse_3454" data-name="Ellipse 3454" cx="10.537" cy="10.537" r="10.537" transform="translate(0.787 1.323)" fill="none"/>
        <g id="Group_3689" data-name="Group 3689" transform="translate(0)">
          <g id="Group_3688" data-name="Group 3688">
            <path id="Path_2728" data-name="Path 2728" d="M28.266,25.176l-7.54-7.541a11.322,11.322,0,1,0-3.087,3.088l7.54,7.541a2.183,2.183,0,1,0,3.087-3.088ZM11.484,21.55A10.161,10.161,0,0,1,1.238,11.333,9.9,9.9,0,0,1,11.336,1.27,9.968,9.968,0,0,1,21.519,11.333,9.974,9.974,0,0,1,11.484,21.55Zm16.1,6.032a1.221,1.221,0,0,1-1.727,0l-7.344-7.345,1.726-1.726,7.344,7.345A1.22,1.22,0,0,1,27.586,27.582Z" transform="translate(-0.003 0)" fill="#707070"/>
            <g id="Rectangle_1263" data-name="Rectangle 1263" transform="translate(20.255 17.353) rotate(45)" fill="#fff" stroke="#707070" stroke-width="1">
              <path d="M0,0H10.758A2.152,2.152,0,0,1,12.91,2.152v0A2.152,2.152,0,0,1,10.758,4.3H0a0,0,0,0,1,0,0V0A0,0,0,0,1,0,0Z" stroke="none"/>
              <path d="M.736.5H10.758A1.652,1.652,0,0,1,12.41,2.152v0A1.652,1.652,0,0,1,10.758,3.8H.736A.236.236,0,0,1,.5,3.567V.736A.236.236,0,0,1,.736.5Z" fill="none"/>
            </g>
          </g>
        </g>
        <g id="Group_3691" data-name="Group 3691" transform="translate(11.561 1.95)">
          <g id="Group_3690" data-name="Group 3690">
            <path id="Path_2729" data-name="Path 2729" d="M192.174,32.409l-.025.963a8.4,8.4,0,0,1,6.372,3.185l.754-.6A9.367,9.367,0,0,0,192.174,32.409Z" transform="translate(-192.149 -32.409)" fill="#707070"/>
          </g>
        </g>
        <g id="Group_3693" data-name="Group 3693" transform="translate(18.564 6.512)">
          <g id="Group_3692" data-name="Group 3692">
            <path id="Path_2730" data-name="Path 2730" d="M309.351,108.233l-.826.5a8.4,8.4,0,0,1,.481.925l.878-.389A9.441,9.441,0,0,0,309.351,108.233Z" transform="translate(-308.525 -108.233)" fill="#707070"/>
          </g>
        </g>
      </g>
    </g>
    <g id="Development" transform="translate(806 11359.754)">
      <g id="Group_58" data-name="Group 58" transform="translate(0 0)">
        <g id="Group_57" data-name="Group 57">
          <path id="Path_31" data-name="Path 31" d="M43.926,20.2H4.575A4.609,4.609,0,0,0,0,24.83V51.213a4.6,4.6,0,0,0,4.575,4.62H17.553c-.114,2.554-.031,10.9-.1,10.9H13.035c-.578,0-.578,1.052,0,1.052H35.457c.578,0,.578-1.052,0-1.052H30.938c-.117.007.114-8.341,0-10.9H43.916a4.6,4.6,0,0,0,4.575-4.62V24.83A4.6,4.6,0,0,0,43.926,20.2ZM1.339,24.83a3.911,3.911,0,0,1,3.236-3.208H43.916a3.9,3.9,0,0,1,3.225,3.208V49.656H1.339Zm17.455,41.9c-.039.057-.1-8.351,0-10.9H29.7c.1,2.535-.308,10.953-.1,10.9ZM47.141,51.213h0c0,1.387-1.851,3.049-3.225,3.049H4.566a3.4,3.4,0,0,1-2.914-3.049v-.229H47.141Z" transform="translate(0 -20.2)" fill="#707070"/>
        </g>
      </g>
    </g>
  </g>
</svg>
