<svg xmlns="http://www.w3.org/2000/svg" width="58.945" height="57.838" viewBox="0 0 58.945 57.838">
  <g id="Development" transform="translate(139 74)">
    <g id="Group_58" data-name="Group 58" transform="translate(-139 -74)">
      <g id="Group_57" data-name="Group 57">
        <path id="Path_31" data-name="Path 31" d="M53.395,20.2H5.562A5.6,5.6,0,0,0,0,25.828V57.9a5.593,5.593,0,0,0,5.562,5.616H21.337c-.138,3.1-.037,13.253-.127,13.244H15.845c-.7,0-.7,1.279,0,1.279H43.1c.7,0,.7-1.279,0-1.279H37.608c-.143.009.138-10.14,0-13.244H53.383A5.593,5.593,0,0,0,58.945,57.9V25.828A5.586,5.586,0,0,0,53.395,20.2ZM1.628,25.828c0-1.686,2.264-3.9,3.934-3.9H53.383c1.67,0,3.92,2.213,3.92,3.9V56.005H1.628ZM22.846,76.759c-.048.07-.127-10.151,0-13.244H36.1c.127,3.081-.375,13.314-.127,13.244ZM57.3,57.9h0c0,1.686-2.25,3.706-3.92,3.706H5.55A4.138,4.138,0,0,1,2.008,57.9V57.62H57.3Z" transform="translate(0 -20.2)" fill="#707070"/>
        <path id="Path_34" data-name="Path 34" d="M318.467,93.433l8.591,7.557-8.124,7.154c-.556.488.514,1.375.756,1.168l8.661-7.3a1.367,1.367,0,0,0,.471-1.025,1.327,1.327,0,0,0-.471-1.025l-9.025-7.8C318.769,91.68,317.9,92.957,318.467,93.433Z" transform="translate(-282.014 -83.704)" fill="#e34713"/>
        <path id="Path_2915" data-name="Path 2915" d="M.185,1.374,8.776,8.93.652,16.084c-.556.488.514,1.375.756,1.168l8.661-7.3a1.367,1.367,0,0,0,.471-1.025,1.327,1.327,0,0,0-.471-1.025L1.043.109C.487-.379-.383.9.185,1.374Z" transform="translate(23.229 25.637) rotate(180)" fill="#e34713"/>
        <line id="Line_243" data-name="Line 243" x1="5.894" y2="19.648" transform="translate(27.016 7.272)" fill="none" stroke="#e34713" stroke-linecap="round" stroke-width="1.5"/>
      </g>
    </g>
  </g>
</svg>
