<svg xmlns="http://www.w3.org/2000/svg" width="20.278" height="13.309" viewBox="0 0 20.278 13.309">
  <g id="Group_113" data-name="Group 113" transform="translate(0 0)">
    <g id="Group_52" data-name="Group 52" transform="translate(0 5.703)">
      <g id="Group_51" data-name="Group 51">
        <path id="Path_59" data-name="Path 59" d="M.317,31.533A.317.317,0,0,1,0,31.216,2.221,2.221,0,0,1,2.218,29a.317.317,0,1,1,0,.634A1.586,1.586,0,0,0,.634,31.216.317.317,0,0,1,.317,31.533Z" transform="translate(0 -28.998)" fill="#fff"/>
      </g>
    </g>
    <g id="Group_54" data-name="Group 54" transform="translate(17.744 5.703)">
      <g id="Group_53" data-name="Group 53">
        <path id="Path_60" data-name="Path 60" d="M58.218,31.533a.317.317,0,0,1-.317-.317,1.586,1.586,0,0,0-1.584-1.584.317.317,0,0,1,0-.634,2.221,2.221,0,0,1,2.218,2.218.317.317,0,0,1-.317.317Z" transform="translate(-56 -28.998)" fill="#fff"/>
      </g>
    </g>
    <g id="Group_56" data-name="Group 56" transform="translate(1.901 5.704)">
      <g id="Group_55" data-name="Group 55" transform="translate(0 0)">
        <path id="Path_61" data-name="Path 61" d="M22.159,29.633H6.317a.317.317,0,0,1,0-.634H22.159a.317.317,0,0,1,0,.634Z" transform="translate(-6 -28.999)" fill="#fff"/>
      </g>
    </g>
    <g id="Group_58" data-name="Group 58" transform="translate(0 7.604)">
      <g id="Group_57" data-name="Group 57" transform="translate(0 0)">
        <path id="Path_62" data-name="Path 62" d="M.317,38.8A.317.317,0,0,1,0,38.485v-3.17a.317.317,0,0,1,.634,0v3.17A.317.317,0,0,1,.317,38.8Z" transform="translate(0 -34.998)" fill="#fff"/>
      </g>
    </g>
    <g id="Group_60" data-name="Group 60" transform="translate(0 10.775)">
      <g id="Group_59" data-name="Group 59" transform="translate(0 0)">
        <path id="Path_63" data-name="Path 63" d="M.951,46.271A.952.952,0,0,1,0,45.321a.317.317,0,0,1,.634,0,.317.317,0,0,0,.317.317.317.317,0,0,1,0,.634Z" transform="translate(0 -45.004)" fill="#fff"/>
      </g>
    </g>
    <g id="Group_62" data-name="Group 62" transform="translate(19.645 7.604)">
      <g id="Group_61" data-name="Group 61" transform="translate(0 0)">
        <path id="Path_64" data-name="Path 64" d="M62.317,38.8A.317.317,0,0,1,62,38.485v-3.17a.317.317,0,0,1,.634,0v3.17A.317.317,0,0,1,62.317,38.8Z" transform="translate(-62 -34.998)" fill="#fff"/>
      </g>
    </g>
    <g id="Group_64" data-name="Group 64" transform="translate(19.011 10.775)">
      <g id="Group_63" data-name="Group 63" transform="translate(0 0)">
        <path id="Path_65" data-name="Path 65" d="M60.317,46.271a.317.317,0,1,1,0-.634.317.317,0,0,0,.317-.317.317.317,0,1,1,.634,0A.952.952,0,0,1,60.317,46.271Z" transform="translate(-60 -45.004)" fill="#fff"/>
      </g>
    </g>
    <g id="Group_66" data-name="Group 66" transform="translate(0.634 11.408)">
      <g id="Group_65" data-name="Group 65" transform="translate(0 0)">
        <path id="Path_66" data-name="Path 66" d="M20.694,47.638H2.317a.317.317,0,0,1,0-.634H20.694a.317.317,0,1,1,0,.634Z" transform="translate(-2 -47.004)" fill="#fff"/>
      </g>
    </g>
    <g id="Group_68" data-name="Group 68" transform="translate(0 9.824)">
      <g id="Group_67" data-name="Group 67" transform="translate(0 0)">
        <path id="Path_67" data-name="Path 67" d="M19.962,42.636H.317a.317.317,0,1,1,0-.634H19.962a.317.317,0,0,1,0,.634Z" transform="translate(0 -42.002)" fill="#fff"/>
      </g>
    </g>
    <g id="Group_70" data-name="Group 70" transform="translate(1.268 11.408)">
      <g id="Group_69" data-name="Group 69" transform="translate(0 0)">
        <path id="Path_68" data-name="Path 68" d="M4.319,48.9A.317.317,0,0,1,4,48.588V47.321a.317.317,0,0,1,.634,0v1.267A.317.317,0,0,1,4.319,48.9Z" transform="translate(-4.002 -47.004)" fill="#fff"/>
      </g>
    </g>
    <g id="Group_72" data-name="Group 72" transform="translate(1.268 12.675)">
      <g id="Group_71" data-name="Group 71" transform="translate(0 0)">
        <path id="Path_69" data-name="Path 69" d="M7.487,51.636H4.319a.317.317,0,0,1,0-.634H7.487a.317.317,0,0,1,0,.634Z" transform="translate(-4.002 -51.002)" fill="#fff"/>
      </g>
    </g>
    <g id="Group_74" data-name="Group 74" transform="translate(4.437 11.408)">
      <g id="Group_73" data-name="Group 73" transform="translate(0 0)">
        <path id="Path_70" data-name="Path 70" d="M14.319,48.9A.317.317,0,0,1,14,48.588V47.321a.317.317,0,0,1,.634,0v1.267A.317.317,0,0,1,14.319,48.9Z" transform="translate(-14.002 -47.004)" fill="#fff"/>
      </g>
    </g>
    <g id="Group_76" data-name="Group 76" transform="translate(15.208 11.408)">
      <g id="Group_75" data-name="Group 75" transform="translate(0 0)">
        <path id="Path_71" data-name="Path 71" d="M48.315,48.9A.317.317,0,0,1,48,48.588V47.321a.317.317,0,0,1,.634,0v1.267A.317.317,0,0,1,48.315,48.9Z" transform="translate(-47.998 -47.004)" fill="#fff"/>
      </g>
    </g>
    <g id="Group_78" data-name="Group 78" transform="translate(15.208 12.675)">
      <g id="Group_77" data-name="Group 77" transform="translate(0 0)">
        <path id="Path_72" data-name="Path 72" d="M51.483,51.636H48.315a.317.317,0,0,1,0-.634h3.168a.317.317,0,0,1,0,.634Z" transform="translate(-47.998 -51.002)" fill="#fff"/>
      </g>
    </g>
    <g id="Group_80" data-name="Group 80" transform="translate(18.377 11.408)">
      <g id="Group_79" data-name="Group 79" transform="translate(0 0)">
        <path id="Path_73" data-name="Path 73" d="M58.315,48.9A.317.317,0,0,1,58,48.588V47.321a.317.317,0,0,1,.634,0v1.267A.317.317,0,0,1,58.315,48.9Z" transform="translate(-57.998 -47.004)" fill="#fff"/>
      </g>
    </g>
    <g id="Group_82" data-name="Group 82" transform="translate(1.901 0.634)">
      <g id="Group_81" data-name="Group 81" transform="translate(0 0)">
        <path id="Path_74" data-name="Path 74" d="M6.317,18.7A.317.317,0,0,1,6,18.386V13.317a.317.317,0,0,1,.634,0v5.069A.317.317,0,0,1,6.317,18.7Z" transform="translate(-6 -13)" fill="#fff"/>
      </g>
    </g>
    <g id="Group_84" data-name="Group 84" transform="translate(17.744 0.634)">
      <g id="Group_83" data-name="Group 83" transform="translate(0 0)">
        <path id="Path_75" data-name="Path 75" d="M56.317,18.7A.317.317,0,0,1,56,18.386V13.317a.317.317,0,0,1,.634,0v5.069A.317.317,0,0,1,56.317,18.7Z" transform="translate(-56 -13)" fill="#fff"/>
      </g>
    </g>
    <g id="Group_86" data-name="Group 86" transform="translate(2.535 0.001)">
      <g id="Group_85" data-name="Group 85">
        <path id="Path_76" data-name="Path 76" d="M22.893,11.634H8.319a.317.317,0,1,1,0-.634H22.893a.317.317,0,1,1,0,.634Z" transform="translate(-8.002 -11)" fill="#fff"/>
      </g>
    </g>
    <g id="Group_97" data-name="Group 97" transform="translate(3.802 3.803)">
      <g id="Group_88" data-name="Group 88">
        <g id="Group_87" data-name="Group 87">
          <path id="Path_77" data-name="Path 77" d="M12.315,24.268A.317.317,0,0,1,12,23.951.952.952,0,0,1,12.949,23a.317.317,0,0,1,0,.634.317.317,0,0,0-.317.317A.317.317,0,0,1,12.315,24.268Z" transform="translate(-11.998 -23)" fill="#fff"/>
        </g>
      </g>
      <g id="Group_90" data-name="Group 90" transform="translate(4.437 0.001)">
        <g id="Group_89" data-name="Group 89">
          <path id="Path_78" data-name="Path 78" d="M26.953,24.269a.317.317,0,0,1-.317-.317.317.317,0,0,0-.317-.317.317.317,0,0,1,0-.634.951.951,0,0,1,.951.95A.317.317,0,0,1,26.953,24.269Z" transform="translate(-26.002 -23.002)" fill="#fff"/>
        </g>
      </g>
      <g id="Group_92" data-name="Group 92" transform="translate(0 0.634)">
        <g id="Group_91" data-name="Group 91">
          <path id="Path_79" data-name="Path 79" d="M12.315,26.9A.317.317,0,0,1,12,26.585V25.318a.317.317,0,0,1,.634,0v1.267A.317.317,0,0,1,12.315,26.9Z" transform="translate(-11.998 -25.001)" fill="#fff"/>
        </g>
      </g>
      <g id="Group_94" data-name="Group 94" transform="translate(5.071 0.634)">
        <g id="Group_93" data-name="Group 93">
          <path id="Path_80" data-name="Path 80" d="M28.319,26.9A.317.317,0,0,1,28,26.585V25.319a.317.317,0,0,1,.634,0v1.266A.317.317,0,0,1,28.319,26.9Z" transform="translate(-28.002 -25.002)" fill="#fff"/>
        </g>
      </g>
      <g id="Group_96" data-name="Group 96" transform="translate(0.634 0.001)">
        <g id="Group_95" data-name="Group 95">
          <path id="Path_81" data-name="Path 81" d="M18.118,23.636h-3.8a.317.317,0,1,1,0-.634h3.8a.317.317,0,0,1,0,.634Z" transform="translate(-13.998 -23.002)" fill="#fff"/>
        </g>
      </g>
    </g>
    <g id="Group_108" data-name="Group 108" transform="translate(10.773 3.803)">
      <g id="Group_99" data-name="Group 99">
        <g id="Group_98" data-name="Group 98">
          <path id="Path_82" data-name="Path 82" d="M34.317,24.268A.317.317,0,0,1,34,23.951.952.952,0,0,1,34.951,23a.317.317,0,0,1,0,.634.317.317,0,0,0-.317.317A.317.317,0,0,1,34.317,24.268Z" transform="translate(-34 -23)" fill="#fff"/>
        </g>
      </g>
      <g id="Group_101" data-name="Group 101" transform="translate(4.437 0.001)">
        <g id="Group_100" data-name="Group 100">
          <path id="Path_83" data-name="Path 83" d="M48.955,24.269a.317.317,0,0,1-.317-.317.317.317,0,0,0-.317-.317.317.317,0,0,1,0-.634.951.951,0,0,1,.951.95A.317.317,0,0,1,48.955,24.269Z" transform="translate(-48.004 -23.002)" fill="#fff"/>
        </g>
      </g>
      <g id="Group_103" data-name="Group 103" transform="translate(0 0.634)">
        <g id="Group_102" data-name="Group 102">
          <path id="Path_84" data-name="Path 84" d="M34.317,26.9A.317.317,0,0,1,34,26.585V25.318a.317.317,0,0,1,.634,0v1.267A.317.317,0,0,1,34.317,26.9Z" transform="translate(-34 -25.001)" fill="#fff"/>
        </g>
      </g>
      <g id="Group_105" data-name="Group 105" transform="translate(5.071 0.634)">
        <g id="Group_104" data-name="Group 104">
          <path id="Path_85" data-name="Path 85" d="M50.321,26.9A.317.317,0,0,1,50,26.585V25.319a.317.317,0,1,1,.634,0v1.266A.317.317,0,0,1,50.321,26.9Z" transform="translate(-50.004 -25.002)" fill="#fff"/>
        </g>
      </g>
      <g id="Group_107" data-name="Group 107" transform="translate(0.634 0.001)">
        <g id="Group_106" data-name="Group 106">
          <path id="Path_86" data-name="Path 86" d="M40.12,23.636h-3.8a.317.317,0,0,1,0-.634h3.8a.317.317,0,0,1,0,.634Z" transform="translate(-36 -23.002)" fill="#fff"/>
        </g>
      </g>
    </g>
    <g id="Group_110" data-name="Group 110" transform="translate(1.901 0)">
      <g id="Group_109" data-name="Group 109">
        <path id="Path_87" data-name="Path 87" d="M6.317,12.266A.317.317,0,0,1,6,11.949.952.952,0,0,1,6.951,11a.317.317,0,1,1,0,.634.318.318,0,0,0-.317.317A.317.317,0,0,1,6.317,12.266Z" transform="translate(-6 -10.998)" fill="#fff"/>
      </g>
    </g>
    <g id="Group_112" data-name="Group 112" transform="translate(17.109 0)">
      <g id="Group_111" data-name="Group 111">
        <path id="Path_88" data-name="Path 88" d="M54.949,12.266a.317.317,0,0,1-.317-.317.318.318,0,0,0-.317-.317.317.317,0,0,1,0-.634.953.953,0,0,1,.951.951A.317.317,0,0,1,54.949,12.266Z" transform="translate(-53.998 -10.998)" fill="#fff"/>
      </g>
    </g>
  </g>
</svg>
