<svg xmlns="http://www.w3.org/2000/svg" width="45.527" height="49.3" viewBox="0 0 45.527 49.3">
  <g id="housekeeping" transform="translate(1.168 0)">
    <path id="Path_15" data-name="Path 15" d="M234.394,169.6a2.123,2.123,0,1,0-2.123,2.123A2.123,2.123,0,0,0,234.394,169.6Zm-2.594,0a.472.472,0,1,1,.472.472A.471.471,0,0,1,231.8,169.6Zm0,0" transform="translate(-209.491 -151.671)" fill="#fff"/>
    <path id="Path_16" data-name="Path 16" d="M368.691,134.971a2.447,2.447,0,1,0-2.447,2.447A2.447,2.447,0,0,0,368.691,134.971Zm-3.243,0a.8.8,0,1,1,.8.8A.8.8,0,0,1,365.448,134.971Zm0,0" transform="translate(-330.529 -120.019)" fill="#fff"/>
    <path id="Path_17" data-name="Path 17" d="M213.681,200.23a5.934,5.934,0,0,0-8.972-4.19,4.36,4.36,0,0,0-8.169.623c-.015,0-.03.024-.045.024a4.391,4.391,0,0,0-4.28,3.543h-.673a2.639,2.639,0,0,0-2.683,2.624v1.39c0,.02,0,.041.005.061a13.794,13.794,0,0,0,3.109,8.435l1.023,9.1a2.977,2.977,0,0,0,2.973,2.688h13.384a2.973,2.973,0,0,0,2.971-2.678l1.022-9.089a13.818,13.818,0,0,0,3.1-8.413.778.778,0,0,0,0-.1v-1.39a2.632,2.632,0,0,0-2.675-2.624Zm-5.856-3.414A4.23,4.23,0,0,1,212,200.23h-2.081a2.623,2.623,0,0,0-2.666,2.623v4.456a.149.149,0,0,1-.058.112.213.213,0,0,1-.149.034.2.2,0,0,1-.147-.178v-4.423a2.6,2.6,0,0,0-2.633-2.624h-.623a4.231,4.231,0,0,1,1.38-2.359h.077s0-.047,0-.069A4.255,4.255,0,0,1,207.825,196.816Zm3.937,15.254a12.2,12.2,0,0,1-6.017,3.706,1.9,1.9,0,0,0-1.462-.686H201.04a1.9,1.9,0,0,0-1.461.686,12.1,12.1,0,0,1-6.02-3.721l-.784-6.99h12.478v2.211a1.842,1.842,0,0,0,1.565,1.813,1.987,1.987,0,0,0,.265.018,1.833,1.833,0,0,0,1.195-.44,1.813,1.813,0,0,0,.631-1.358v-2.244h3.641Zm-7.224,4.907a.239.239,0,0,1-.255.236H201.04a.236.236,0,1,1,0-.471h3.243a.239.239,0,0,1,.255.236ZM196.5,198.336a2.682,2.682,0,0,1,1.563.481.83.83,0,0,0,.953-1.359,4.367,4.367,0,0,0-.846-.467,2.708,2.708,0,0,1,5.2.2,5.842,5.842,0,0,0-1.4,3.036h-8.051a2.623,2.623,0,0,1,2.577-1.894Zm-5.985,4.517a.986.986,0,0,1,1.031-.972h1.233c.059,0,.119.021.182.021s.124-.021.182-.021h11.131a.945.945,0,0,1,.982.972v.561H190.511Zm.049,2.212h.553l.43,3.829A12.4,12.4,0,0,1,190.56,205.065Zm20.123,16.607a1.33,1.33,0,0,1-1.329,1.2H195.97a1.333,1.333,0,0,1-1.331-1.212l-.79-7.026a13.656,13.656,0,0,0,5.322,2.722,1.891,1.891,0,0,0,1.868,1.506h3.243a1.89,1.89,0,0,0,1.868-1.506,13.814,13.814,0,0,0,5.322-2.729Zm3.528-16.607h.553a12.425,12.425,0,0,1-.985,3.847Zm.595-2.212v.561h-5.9v-.561a.972.972,0,0,1,1.015-.972h3.858A.98.98,0,0,1,214.805,202.853Zm0,0" transform="translate(-172.098 -175.224)" fill="#fff"/>
    <path id="Path_18" data-name="Path 18" d="M334.674,337.461a.826.826,0,0,0-.826.826V341a.826.826,0,1,0,1.651,0v-2.712A.826.826,0,0,0,334.674,337.461Zm0,0" transform="translate(-303.406 -305.62)" fill="#fff"/>
    <path id="Path_19" data-name="Path 19" d="M380.92,374.957a.826.826,0,0,0-.826.826v2.005a.826.826,0,0,0,1.651,0v-2.005A.826.826,0,0,0,380.92,374.957Zm0,0" transform="translate(-345.288 -339.578)" fill="#fff"/>
    <path id="Path_20" data-name="Path 20" d="M-.343,49.3h.006l20.049-.136a.824.824,0,0,0,.8-.984l-1.144-5.806a1.867,1.867,0,0,0-1.845-2.237l-2.541,0a1.984,1.984,0,0,0-1.959-1.807h-.015l-2.5.053V.826a.826.826,0,1,0-1.651,0V38.4l-2.692.021A1.966,1.966,0,0,0,4.223,40.24l-2.541.02A1.854,1.854,0,0,0-.143,42.435l-1.014,5.9a.824.824,0,0,0,.183.67.821.821,0,0,0,.631.291Zm17.812-1.77V46.077a.826.826,0,1,0-1.651,0v1.465l-1.769.013V46.077a.825.825,0,1,0-1.651,0v1.489l-1.887.013v-1.5a.826.826,0,1,0-1.651,0V47.59L6.973,47.6V46.077a.826.826,0,1,0-1.651,0v1.537l-1.769.013v-1.55a.826.826,0,0,0-1.651,0v1.561l-1.246.009.627-3.7a1.765,1.765,0,0,0,.414.05h.015l15.844-.122a1.9,1.9,0,0,0,.418-.052l.708,3.7ZM1.7,41.911l3.36-.026a.825.825,0,0,0,.819-.832l-.005-.665a.313.313,0,0,1,.091-.224.317.317,0,0,1,.223-.111l6.843-.069h0a.329.329,0,0,1,.315.33l.005.673a.837.837,0,0,0,.247.586.8.8,0,0,0,.585.221l3.36-.041h0c.073,0,.1.052.125.08a.27.27,0,0,1,.038.17.219.219,0,0,1-.036.153.177.177,0,0,1-.139.064L1.7,42.342h0a.216.216,0,0,1,0-.432Zm0,0" transform="translate(0)" fill="#fff"/>
  </g>
</svg>
