<svg id="Microsoft_Excel_Logo" xmlns="http://www.w3.org/2000/svg" width="131.543" height="124.538" viewBox="0 0 131.543 124.538">
  <rect id="rect4556" width="123.214" height="96.631" rx="3.375" stroke-width="1" fill="#faf9f9" stroke="#002395" transform="translate(6.488 13.624)"/>
  <rect id="Rectangle_1473" data-name="Rectangle 1473" width="46.015" height="71.023" transform="translate(9.003 30.01)" fill="#faf9f9"/>
  <g id="use3985" transform="translate(70.969 12.37)">
    <path id="rect3991" d="M103.982,14.691H125v10.8H103.982Zm25.325,0h21.016V25.465H129.307ZM103.982-.958H125V10.355H103.982Zm25.325,0h21.016V10.355H129.307ZM103.982-16.584H125V-5.272H103.982Zm25.325,0h21.016V-5.272H129.307ZM103.982-32.21H125V-20.9H103.982Zm25.325,0h21.016V-20.9H129.307ZM103.982-47.836H125v11.312H103.982Zm25.325,0h21.016v11.312H129.307ZM103.25-60.75v4.288h56.241V34.623H103.25v4.311h55.882a4.693,4.693,0,0,0,4.692-4.692v-90.3a4.693,4.693,0,0,0-4.692-4.692H103.25Z" transform="translate(-103.25 60.751)" fill="#c3d9f6"/>
  </g>
  <path id="path3945" d="M79.457,9.063,4.469,22.4v97.664L79.412,133.6ZM55.479,49.251,44.747,71.32l11.024,22.2L45.8,92.942,39.246,76.687,32.825,92.2l-8.778-.494L34.352,71.32,24.563,50.71l9.5-.449,5.523,15.02,6.646-15.6Z" transform="translate(-4.469 -9.063)" fill="#002395"/>
</svg>
