<svg xmlns="http://www.w3.org/2000/svg" width="46.119" height="36.506" viewBox="0 0 46.119 36.506">
  <path id="towel" d="M19,98.367a6.546,6.546,0,0,0,6.538,6.538H62.13a2.986,2.986,0,1,0,0-5.972H59.723a4.132,4.132,0,0,0,.745-1.171,4.268,4.268,0,0,0-.811-4.571H62.13a2.986,2.986,0,0,0,0-5.972H60.808a4.13,4.13,0,0,0,.746-1.171,4.268,4.268,0,0,0-.812-4.572H62.13a2.986,2.986,0,1,0,0-5.972H60.808a4.132,4.132,0,0,0,.745-1.171A4.273,4.273,0,0,0,57.618,68.4H25.535a6.537,6.537,0,0,0-2.9,12.4,6.535,6.535,0,0,0,0,11.715A6.545,6.545,0,0,0,19,98.367Zm1.362-23.429a5.182,5.182,0,0,1,5.176-5.176H57.618A2.911,2.911,0,0,1,60.3,73.8a2.823,2.823,0,0,1-2.666,1.7h-26.4a.837.837,0,1,1,0-1.675H47.546a.681.681,0,0,0,0-1.362H31.233a2.2,2.2,0,0,0-.48,4.346.68.68,0,0,0,.263.053H62.13a1.624,1.624,0,1,1,0,3.248H25.535a5.182,5.182,0,0,1-5.176-5.176Zm0,11.715a5.182,5.182,0,0,1,5.176-5.176H57.618A2.911,2.911,0,0,1,60.3,85.518a2.823,2.823,0,0,1-2.666,1.7h-26.4a.838.838,0,1,1,0-1.675H47.546a.681.681,0,0,0,0-1.362H31.233a2.2,2.2,0,0,0-.48,4.346.678.678,0,0,0,.263.053H62.13a1.624,1.624,0,0,1,0,3.248H25.535a5.182,5.182,0,0,1-5.176-5.176Zm5.176,6.538h31a2.911,2.911,0,0,1,2.681,4.041,2.823,2.823,0,0,1-2.666,1.7H31.233a.838.838,0,1,1,0-1.675H47.546a.681.681,0,0,0,0-1.362H31.233a2.2,2.2,0,0,0-.48,4.346.678.678,0,0,0,.263.053H62.13a1.624,1.624,0,1,1,0,3.248H25.535a5.176,5.176,0,1,1,0-10.352Z" transform="translate(-18.997 -68.4)" fill="#fff"/>
</svg>
