<svg xmlns="http://www.w3.org/2000/svg" width="204.067" height="123.374" viewBox="0 0 204.067 123.374">
  <g id="Group_4525" data-name="Group 4525" transform="translate(-992.249 -1429.85)">
    <g id="Group_4523" data-name="Group 4523" transform="translate(992.25 1429.85)">
      <g id="Group_4521" data-name="Group 4521" transform="translate(0)">
        <g id="Rectangle_1468" data-name="Rectangle 1468" fill="none" stroke="#002395" stroke-width="3">
          <rect width="169.389" height="106.702" rx="10" stroke="none"/>
          <rect x="1.5" y="1.5" width="166.389" height="103.702" rx="8.5" fill="none"/>
        </g>
      </g>
    </g>
    <g id="Group_4524" data-name="Group 4524">
      <rect id="Rectangle_1477" data-name="Rectangle 1477" width="33.011" height="15.005" transform="translate(1056.27 1445.022)" fill="#c3d9f6"/>
      <rect id="Rectangle_1480" data-name="Rectangle 1480" width="33.011" height="15.005" transform="translate(1056.27 1471.031)" fill="#c3d9f6"/>
      <rect id="Rectangle_1483" data-name="Rectangle 1483" width="33.011" height="15.005" transform="translate(1056.27 1497.039)" fill="#c3d9f6"/>
      <rect id="Rectangle_1478" data-name="Rectangle 1478" width="33.011" height="15.005" transform="translate(1102.286 1445.022)" fill="#c3d9f6"/>
      <rect id="Rectangle_1479" data-name="Rectangle 1479" width="33.011" height="15.005" transform="translate(1102.286 1471.031)" fill="#c3d9f6"/>
      <rect id="Rectangle_1482" data-name="Rectangle 1482" width="33.011" height="15.005" transform="translate(1102.286 1497.039)" fill="#c3d9f6"/>
      <g id="Group_4522" data-name="Group 4522" transform="translate(1102.952 1502.541)">
        <g id="Path_3086" data-name="Path 3086" transform="translate(0)" fill="#faf9f9">
          <path d="M 83.36071014404297 50.18331527709961 L 10.00328540802002 50.18331527709961 C 4.763155937194824 50.18331527709961 0.5000030398368835 45.92016220092773 0.5000030398368835 40.68003463745117 L 0.5000030398368835 10.00328159332275 C 0.5000030398368835 4.7631516456604 4.763155937194824 0.4999988079071045 10.00328540802002 0.4999988079071045 L 83.36071014404297 0.4999988079071045 C 88.60083770751953 0.4999988079071045 92.86400604248047 4.7631516456604 92.86400604248047 10.00328159332275 L 92.86400604248047 40.68003463745117 C 92.86400604248047 45.92016220092773 88.60083770751953 50.18331527709961 83.36071014404297 50.18331527709961 Z" stroke="none"/>
          <path d="M 10.00328826904297 0.9999961853027344 C 5.038864135742188 0.9999961853027344 1 5.038856506347656 1 10.0032844543457 L 1 40.68003082275391 C 1 45.64445877075195 5.038864135742188 49.68331909179688 10.00328826904297 49.68331909179688 L 83.36070251464844 49.68331909179688 C 88.32514190673828 49.68331909179688 92.36400604248047 45.64445877075195 92.36400604248047 40.68003082275391 L 92.36400604248047 10.0032844543457 C 92.36400604248047 5.038856506347656 88.32514190673828 0.9999961853027344 83.36070251464844 0.9999961853027344 L 10.00328826904297 0.9999961853027344 M 10.00328826904297 -3.814697265625e-06 L 83.36070251464844 -3.814697265625e-06 C 88.8853759765625 -3.814697265625e-06 93.36400604248047 4.478618621826172 93.36400604248047 10.0032844543457 L 93.36400604248047 40.68003082275391 C 93.36400604248047 46.20468139648438 88.8853759765625 50.68331909179688 83.36070251464844 50.68331909179688 L 10.00328826904297 50.68331909179688 C 4.478614807128906 50.68331909179688 0 46.20468139648438 0 40.68003082275391 L 0 10.0032844543457 C 0 4.478618621826172 4.478614807128906 -3.814697265625e-06 10.00328826904297 -3.814697265625e-06 Z" stroke="none" fill="#002395"/>
        </g>
        <rect id="Rectangle_1472" data-name="Rectangle 1472" width="93.364" height="14.005" transform="translate(0 9.336)" fill="#002395"/>
        <circle id="Ellipse_58" data-name="Ellipse 58" cx="6.002" cy="6.002" r="6.002" transform="translate(7.336 34.011)" fill="#c3d9f6"/>
        <circle id="Ellipse_60" data-name="Ellipse 60" cx="6.002" cy="6.002" r="6.002" transform="translate(13.338 34.011)" fill="#002395"/>
      </g>
    </g>
  </g>
</svg>
